<?xml version="1.0" standalone="no"?>
<!-- Generator: Adobe Fireworks 10, Export SVG Extension by Aaron Beall (http://fireworks.abeall.com) . Version: 0.6.1  -->
<!DOCTYPE svg PUBLIC "-//W3C//DTD SVG 1.1//EN" "http://www.w3.org/Graphics/SVG/1.1/DTD/svg11.dtd">
<svg id="Untitled-Page%201" viewBox="0 0 45 22" style="background-color:#ffffff00" version="1.1"
	xmlns="http://www.w3.org/2000/svg" xmlns:xlink="http://www.w3.org/1999/xlink" xml:space="preserve"
	x="0px" y="0px" width="45px" height="22px"
>
	<g id="Layer%201">
		<path d="M 20.0849 2.8888 L 20.0849 8.1608 C 20.0849 8.408 31.3436 8.1608 31.3436 8.1608 C 31.3436 8.1608 28.9981 2.065 20.0849 2.8888 ZM 18.2085 2.8888 C 10.5463 5.0306 9.4517 8.1608 9.4517 8.1608 L 18.2085 8.1608 L 18.2085 2.8888 ZM 33.8456 8.1608 C 41.2732 8.6551 42.1332 10.7969 43.8533 11.4559 C 45.5734 12.1149 43.8533 13.4329 43.8533 13.4329 L 44.4788 14.7509 C 45.6516 16.3984 44.4788 17.387 44.4788 17.387 L 43.8533 18.046 L 41.3513 18.046 C 41.3513 18.046 42.1332 12.1149 36.3475 12.1149 C 30.5618 12.1149 30.7181 18.046 30.7181 18.046 L 15.0811 18.046 C 15.0811 18.046 15.7066 12.1149 10.0772 12.1149 C 4.4479 12.1149 4.4479 18.046 4.4479 18.046 L 1.946 18.705 C 1.946 18.705 0.2259 17.0574 0.0695 16.728 C -0.0869 16.3984 0.0695 14.7509 0.0695 14.7509 L 1.946 14.0919 C 1.946 14.0919 4.917 4.5363 16.9575 1.5707 C 28.9981 -1.3948 33.8456 8.1608 33.8456 8.1608 Z" fill="#ffffff"/>
		<path id="Ellipse" d="M 40.1004 17.7164 C 40.1004 15.3506 38.2802 13.4329 36.0347 13.4329 C 33.7893 13.4329 31.9691 15.3506 31.9691 17.7164 C 31.9691 20.0822 33.7893 22 36.0347 22 C 38.2802 22 40.1004 20.0822 40.1004 17.7164 Z" fill="#ffffff"/>
		<path id="Ellipse2" d="M 13.8301 17.7164 C 13.8301 15.3506 12.0099 13.4329 9.7645 13.4329 C 7.5191 13.4329 5.6988 15.3506 5.6988 17.7164 C 5.6988 20.0822 7.5191 22 9.7645 22 C 12.0099 22 13.8301 20.0822 13.8301 17.7164 Z" fill="#ffffff"/>
	</g>
</svg>