<?xml version="1.0" standalone="no"?>
<!-- Generator: Adobe Fireworks 10, Export SVG Extension by Aaron Beall (http://fireworks.abeall.com) . Version: 0.6.1  -->
<!DOCTYPE svg PUBLIC "-//W3C//DTD SVG 1.1//EN" "http://www.w3.org/Graphics/SVG/1.1/DTD/svg11.dtd">
<svg id="Untitled-Page%201" viewBox="0 0 32 27" style="background-color:#ffffff00" version="1.1"
	xmlns="http://www.w3.org/2000/svg" xmlns:xlink="http://www.w3.org/1999/xlink" xml:space="preserve"
	x="0px" y="0px" width="32px" height="27px"
>
	<g id="Layer%201">
		<path id="Ellipse" d="M 1 22 C 1 19.7908 2.7908 18 5 18 C 7.2092 18 9 19.7908 9 22 C 9 24.2092 7.2092 26 5 26 C 2.7908 26 1 24.2092 1 22 Z" stroke="#008040" stroke-width="2" fill="none"/>
		<path id="Ellipse2" d="M 23 22 C 23 19.7908 24.7908 18 27 18 C 29.2092 18 31 19.7908 31 22 C 31 24.2092 29.2092 26 27 26 C 24.7908 26 23 24.2092 23 22 Z" stroke="#008040" stroke-width="2" fill="none"/>
		<path d="M 5.3333 23.0488 L 18 23.0488 L 22 14.4878 L 26 22.3903 L 27.3333 21.0732 L 20.6667 8.561 C 20.6667 8.561 17.1667 7.0793 16.6667 7.9025 C 16.1667 8.7256 16.6667 8.561 16.6667 8.561 L 19.3333 9.8781 L 20 11.1951 C 20 11.1951 13.1667 11.1128 13.3333 11.1951 C 13.5 11.2775 10 13.8293 10 13.8293 L 2 13.8293 C 2 13.8293 1.5833 14.4878 1.3333 15.8049 L 7.3333 15.8049 C 7.3333 15.8049 10.5833 16.7104 11.3333 21.0732 C 11.3333 21.0732 5.3333 20.8262 5.3333 21.0732 C 5.3333 21.3201 5.3333 23.0488 5.3333 23.0488 Z" fill="#008040"/>
		<path d="M 12.6667 14.4878 C 12.6667 14.4878 8 13.3354 8.6667 10.5366 C 9.3333 7.7378 9.8333 4.4451 12.6667 3.9512 C 12.6667 3.9512 15.75 3.6219 14.6667 6.5854 L 14 7.9025 C 14 7.9025 13 9.4665 17.3333 9.2195 L 18 8.561 L 19.3333 9.2195 C 19.3333 9.2195 18.5 10.5366 16.6667 10.5366 C 14.8333 10.5366 13.3333 9.8781 13.3333 9.8781 L 12.6667 9.8781 L 12.6667 11.1951 L 13.3333 12.5122 L 12.6667 14.4878 Z" fill="#008040"/>
		<path id="Ellipse3" d="M 12.6667 2.6342 C 12.6667 1.1793 13.8605 0 15.3333 0 C 16.8061 0 18 1.1793 18 2.6342 C 18 4.089 16.8061 5.2683 15.3333 5.2683 C 13.8605 5.2683 12.6667 4.089 12.6667 2.6342 Z" fill="#008040"/>
		<path d="M 24.6667 13.8293 L 24.6667 10.5366 C 24.6667 10.5366 22 10.7835 22 12.5122 C 22 12.5122 22.3333 13.2531 24.6667 13.8293 Z" fill="#008040"/>
	</g>
</svg>