<?xml version="1.0" standalone="no"?>
<!-- Generator: Adobe Fireworks 10, Export SVG Extension by Aaron Beall (http://fireworks.abeall.com) . Version: 0.6.1  -->
<!DOCTYPE svg PUBLIC "-//W3C//DTD SVG 1.1//EN" "http://www.w3.org/Graphics/SVG/1.1/DTD/svg11.dtd">
<svg id="Untitled-Page%201" viewBox="0 0 243 81" style="background-color:#ffffff00" version="1.1"
	xmlns="http://www.w3.org/2000/svg" xmlns:xlink="http://www.w3.org/1999/xlink" xml:space="preserve"
	x="0px" y="0px" width="243px" height="81px"
>
	<defs>
		<filter id="filter1" x="-100%" y="-100%" width="300%" height="300%">
			<!-- Drop Shadow -->
			<feOffset result="out" in="SourceGraphic" dx="1.4142" dy="1.4142"/>
			<feColorMatrix result="out" in="out" type="matrix" values="0 0 0 0 0  0 0 0 0 0  0 0 0 0 0  0 0 0 0.302 0"/>
			<feGaussianBlur result="out" in="out" stdDeviation="1"/>
			<feBlend in="SourceGraphic" in2="out" mode="normal" result="Drop_Shadow1"/>
		</filter>
		<filter id="filter2" x="-100%" y="-100%" width="300%" height="300%">
			<!-- Drop Shadow -->
			<feOffset result="out" in="SourceGraphic" dx="1.4142" dy="1.4142"/>
			<feColorMatrix result="out" in="out" type="matrix" values="0 0 0 0 0  0 0 0 0 0  0 0 0 0 0  0 0 0 0.5608 0"/>
			<feGaussianBlur result="out" in="out" stdDeviation="1"/>
			<feBlend in="SourceGraphic" in2="out" mode="normal" result="Drop_Shadow2"/>
		</filter>
		<filter id="filter3" x="-100%" y="-100%" width="300%" height="300%">
			<!-- Drop Shadow -->
			<feOffset result="out" in="SourceGraphic" dx="1.3893" dy="1.4387"/>
			<feColorMatrix result="out" in="out" type="matrix" values="0 0 0 0 0  0 0 0 0 0  0 0 0 0 0  0 0 0 0.6784 0"/>
			<feGaussianBlur result="out" in="out" stdDeviation="2"/>
			<feBlend in="SourceGraphic" in2="out" mode="normal" result="Drop_Shadow3"/>
		</filter>
	</defs>
	<g id="Layer%201">
		<g filter="url(#filter1)">
			<path d="M 9.9219 39 L 14.3125 39 C 16.9375 39 18.8594 39.5625 20.0938 40.6875 C 21.3281 41.8125 21.9531 43.5313 21.9531 45.875 C 21.9531 48.2031 21.2031 49.9688 19.7344 51.1875 C 18.2656 52.4063 16.0469 53 13.0938 53 L 9.9219 53 L 9.9219 39 L 9.9219 39 ZM 27.6406 34.6563 C 24.7031 32.2188 20.4063 31 14.7813 31 L -0.0625 31 L -0.0625 78 L 9.9219 78 L 9.9219 61 L 14.125 61 C 19.8438 61 24.2656 59.6719 27.375 57.0156 C 30.4844 54.3594 32.0469 50.5313 32.0469 45.5156 C 32.0469 40.7031 30.5781 37.0938 27.6406 34.6563 L 27.6406 34.6563 Z" fill="#ffffff"/>
			<path d="M 70.0469 78 L 70.0469 53.8438 C 70.0469 49.5313 68.75 46.3125 66.1563 44.1875 C 63.5625 42.0625 59.8438 41 55 41 C 49.9219 41 45.2969 42.0469 41.1406 44.125 L 44.4219 50.6094 C 48.3281 48.875 51.7344 48 54.6406 48 C 58.3906 48 60.2813 50.0781 60.2813 54.2031 L 60.2813 56 L 53.9844 56.1875 C 48.5469 56.3906 44.4844 57.3906 41.7969 59.2031 C 39.1094 61.0156 37.7656 63.8125 37.7656 67.625 C 37.7656 71.2813 38.7656 74.0781 40.7656 76.0469 C 42.7656 78.0156 45.5 79 48.9844 79 C 51.8125 79 54.1094 78.6094 55.875 77.8281 C 57.625 77.0469 59.3438 75.6563 61.0156 73.6406 L 61.2813 73.6406 L 63.1719 78 L 70.0469 78 L 70.0469 78 ZM 60.2813 64.9219 C 60.2813 67.0625 59.5781 68.7813 58.2031 70.0625 C 56.8281 71.3594 54.9844 72 52.6875 72 C 49.4688 72 47.8594 70.6406 47.8594 67.9063 C 47.8594 66 48.5625 64.5938 49.9688 63.6563 C 51.375 62.7188 53.5313 62.2188 56.4375 62.125 L 60.2813 62 L 60.2813 64.9219 L 60.2813 64.9219 Z" fill="#ffffff"/>
			<path d="M 94.0625 42.8594 C 92.1563 44.0938 90.6406 45.7188 89.5313 47.7344 L 89.0469 47.7344 L 87.5938 42 L 80.1563 42 L 80.1563 78 L 89.9844 78 L 89.9844 59.4688 C 89.9844 56.5469 90.8594 54.2656 92.6094 52.6406 C 94.3594 51.0156 96.8125 50.1875 99.9688 50.1875 C 101.0938 50.1875 102.0625 50.2969 102.8594 50.5 L 103.6094 41.2969 C 102.7188 41.1094 101.6094 41 100.2813 41 C 98.0313 41 95.9688 41.625 94.0625 42.8594 L 94.0625 42.8594 Z" fill="#ffffff"/>
			<path d="M 119.4688 58.4219 L 119.9844 50.2656 L 119.9844 28 L 110.1563 28 L 110.1563 78 L 119.9844 78 L 119.9844 66.7969 L 124.2188 63.4219 L 134.6563 78 L 146 78 L 130.7656 57.6094 L 145.1406 42 L 134.0469 42 L 123.9063 52.9531 L 119.5938 58.4219 L 119.4688 58.4219 L 119.4688 58.4219 Z" fill="#ffffff"/>
		</g>
		<g filter="url(#filter2)">
			<path d="M 180.2031 78 L 183.7188 61.2031 C 184.75 56.3594 186.5469 52.4375 189.1406 49.4688 C 191.7344 46.5 194.7188 45 198.0938 45 C 199.7188 45 200.9844 45.4688 201.9219 46.375 C 202.8438 47.2969 203.3125 48.5938 203.3125 50.25 C 203.3125 51.4688 203.0313 53.3594 202.5 55.9531 L 197.7031 78 L 200.9219 78 L 205.8281 55.5 C 206.1875 53.5 206.3906 52.2031 206.4531 51.6094 C 206.5 51.0156 206.5313 50.3906 206.5313 49.7656 C 206.5313 47.2656 205.8281 45.3594 204.4219 44.0156 C 203.0156 42.6719 201.0469 42 198.5313 42 C 196 42 193.6094 42.7656 191.375 44.2656 C 189.1406 45.7656 187.2031 47.9844 185.5469 50.8906 L 185.3594 50.8906 C 185.2969 48 184.6406 45.7969 183.4219 44.2813 C 182.2031 42.7656 180.4531 42 178.1719 42 C 175.7813 42 173.5 42.6563 171.3125 43.9531 C 169.125 45.2656 167.1875 47.2031 165.4688 49.7656 L 165.2813 49.7656 L 166.3438 43 L 163.7656 43 L 156.3281 78 L 159.4844 78 L 162.7031 62.6094 C 163.4531 59.0156 164.5156 55.9219 165.9219 53.2969 C 167.3125 50.6875 169.0156 48.6563 171.0469 47.1875 C 173.0625 45.7344 175.2188 45 177.5 45 C 180.7969 45 182.4531 46.9688 182.4531 50.9063 C 182.4531 51.7031 182.1875 53.4531 181.6563 56.1563 L 176.9063 78 L 180.2031 78 L 180.2031 78 Z" fill="#00b259"/>
			<path d="M 234.75 76.7031 L 234.75 73.6406 C 231.6563 75.2188 228.6875 76 225.8594 76 C 222.8594 76 220.5781 75.0781 218.9844 73.2188 C 217.3906 71.375 216.6094 68.6719 216.6094 65.1406 C 216.6094 63.9844 216.6719 62.9375 216.7969 62 L 217.8594 62 C 224.7656 62 229.9844 60.9531 233.5 58.8281 C 237.0156 56.7031 238.7813 53.625 238.7813 49.5938 C 238.7813 47.25 238.0469 45.4063 236.5781 44.0469 C 235.1094 42.6875 233.1563 42 230.7188 42 C 227.5 42 224.5469 43.0781 221.875 45.2344 C 219.1875 47.3906 217.0938 50.2813 215.5625 53.9219 C 214.0313 57.5625 213.2813 61.375 213.2813 65.3438 C 213.2813 69.6563 214.3125 73 216.4063 75.4063 C 218.5 77.8125 221.3906 79 225.1094 79 C 228.5156 79 231.7344 78.2344 234.75 76.7031 L 234.75 76.7031 ZM 234.0781 46.4375 C 235.0156 47.4063 235.4844 48.6094 235.4844 50.0781 C 235.4844 56.0313 229.9219 59 218.8281 59 L 217.25 59 C 218.3125 54.75 220.0625 51.3594 222.4844 48.8125 C 224.8906 46.2813 227.5156 45 230.3281 45 C 231.8906 45 233.1406 45.4844 234.0781 46.4375 L 234.0781 46.4375 Z" fill="#00b259"/>
		</g>
		<path filter="url(#filter3)" d="M 223.6084 11.8685 C 223.6084 9.203 225.7045 7.0422 228.2901 7.0422 C 230.8757 7.0422 232.9717 9.203 232.9717 11.8685 C 232.9717 14.534 230.8757 16.6948 228.2901 16.6948 C 225.7045 16.6948 223.6084 14.534 223.6084 11.8685 ZM 228.6802 1.0093 C 228.6802 1.0093 219.2946 0.3987 218.1465 9.0532 C 217.4529 14.2817 219.447 18.8398 219.447 18.8398 L 228.8103 36 L 237.1332 19.175 C 237.1332 19.175 239.344 13.8124 238.9538 9.9916 C 238.5637 6.1708 235.0525 1.0764 228.6802 1.0093 Z" fill="#00b259"/>
	</g>
</svg>