<?xml version="1.0" standalone="no"?>
<!-- Generator: Adobe Fireworks 10, Export SVG Extension by Aaron Beall (http://fireworks.abeall.com) . Version: 0.6.1  -->
<!DOCTYPE svg PUBLIC "-//W3C//DTD SVG 1.1//EN" "http://www.w3.org/Graphics/SVG/1.1/DTD/svg11.dtd">
<svg id="Untitled-Page%201" viewBox="0 0 263 79" style="background-color:#ffffff00" version="1.1"
	xmlns="http://www.w3.org/2000/svg" xmlns:xlink="http://www.w3.org/1999/xlink" xml:space="preserve"
	x="0px" y="0px" width="263px" height="79px"
>
	<defs>
		<filter id="filter1" x="-100%" y="-100%" width="300%" height="300%">
			<!-- Drop Shadow -->
			<feOffset result="out" in="SourceGraphic" dx="1.4142" dy="1.4142"/>
			<feColorMatrix result="out" in="out" type="matrix" values="0 0 0 0 0  0 0 0 0 0  0 0 0 0 0  0 0 0 0.302 0"/>
			<feGaussianBlur result="out" in="out" stdDeviation="1"/>
			<feBlend in="SourceGraphic" in2="out" mode="normal" result="Drop_Shadow1"/>
		</filter>
		<filter id="filter2" x="-100%" y="-100%" width="300%" height="300%">
			<!-- Drop Shadow -->
			<feOffset result="out" in="SourceGraphic" dx="1.4142" dy="1.4142"/>
			<feColorMatrix result="out" in="out" type="matrix" values="0 0 0 0 0  0 0 0 0 0  0 0 0 0 0  0 0 0 0.5608 0"/>
			<feGaussianBlur result="out" in="out" stdDeviation="1"/>
			<feBlend in="SourceGraphic" in2="out" mode="normal" result="Drop_Shadow2"/>
		</filter>
		<filter id="filter3" x="-100%" y="-100%" width="300%" height="300%">
			<!-- Drop Shadow -->
			<feOffset result="out" in="SourceGraphic" dx="1.4142" dy="1.4142"/>
			<feColorMatrix result="out" in="out" type="matrix" values="0 0 0 0 0  0 0 0 0 0  0 0 0 0 0  0 0 0 0.5608 0"/>
			<feGaussianBlur result="out" in="out" stdDeviation="1"/>
			<feBlend in="SourceGraphic" in2="out" mode="normal" result="Drop_Shadow3"/>
		</filter>
	</defs>
	<g id="Layer%201">
		<g filter="url(#filter1)">
			<path d="M 9.9219 37 L 14.3125 37 C 16.9375 37 18.8594 37.5625 20.0938 38.6875 C 21.3281 39.8125 21.9531 41.5313 21.9531 43.875 C 21.9531 46.2031 21.2031 47.9688 19.7344 49.1875 C 18.2656 50.4063 16.0469 51 13.0938 51 L 9.9219 51 L 9.9219 37 L 9.9219 37 ZM 27.6406 32.6563 C 24.7031 30.2188 20.4063 29 14.7813 29 L -0.0625 29 L -0.0625 76 L 9.9219 76 L 9.9219 59 L 14.125 59 C 19.8438 59 24.2656 57.6719 27.375 55.0156 C 30.4844 52.3594 32.0469 48.5313 32.0469 43.5156 C 32.0469 38.7031 30.5781 35.0938 27.6406 32.6563 L 27.6406 32.6563 Z" fill="#ffffff"/>
			<path d="M 70.0469 76 L 70.0469 51.8438 C 70.0469 47.5313 68.75 44.3125 66.1563 42.1875 C 63.5625 40.0625 59.8438 39 55 39 C 49.9219 39 45.2969 40.0469 41.1406 42.125 L 44.4219 48.6094 C 48.3281 46.875 51.7344 46 54.6406 46 C 58.3906 46 60.2813 48.0781 60.2813 52.2031 L 60.2813 54 L 53.9844 54.1875 C 48.5469 54.3906 44.4844 55.3906 41.7969 57.2031 C 39.1094 59.0156 37.7656 61.8125 37.7656 65.625 C 37.7656 69.2813 38.7656 72.0781 40.7656 74.0469 C 42.7656 76.0156 45.5 77 48.9844 77 C 51.8125 77 54.1094 76.6094 55.875 75.8281 C 57.625 75.0469 59.3438 73.6563 61.0156 71.6406 L 61.2813 71.6406 L 63.1719 76 L 70.0469 76 L 70.0469 76 ZM 60.2813 62.9219 C 60.2813 65.0625 59.5781 66.7813 58.2031 68.0625 C 56.8281 69.3594 54.9844 70 52.6875 70 C 49.4688 70 47.8594 68.6406 47.8594 65.9063 C 47.8594 64 48.5625 62.5938 49.9688 61.6563 C 51.375 60.7188 53.5313 60.2188 56.4375 60.125 L 60.2813 60 L 60.2813 62.9219 L 60.2813 62.9219 Z" fill="#ffffff"/>
			<path d="M 94.0625 40.8594 C 92.1563 42.0938 90.6406 43.7188 89.5313 45.7344 L 89.0469 45.7344 L 87.5938 40 L 80.1563 40 L 80.1563 76 L 89.9844 76 L 89.9844 57.4688 C 89.9844 54.5469 90.8594 52.2656 92.6094 50.6406 C 94.3594 49.0156 96.8125 48.1875 99.9688 48.1875 C 101.0938 48.1875 102.0625 48.2969 102.8594 48.5 L 103.6094 39.2969 C 102.7188 39.1094 101.6094 39 100.2813 39 C 98.0313 39 95.9688 39.625 94.0625 40.8594 L 94.0625 40.8594 Z" fill="#ffffff"/>
			<path d="M 119.4688 56.4219 L 119.9844 48.2656 L 119.9844 26 L 110.1563 26 L 110.1563 76 L 119.9844 76 L 119.9844 64.7969 L 124.2188 61.4219 L 134.6563 76 L 146 76 L 130.7656 55.6094 L 145.1406 40 L 134.0469 40 L 123.9063 50.9531 L 119.5938 56.4219 L 119.4688 56.4219 L 119.4688 56.4219 Z" fill="#ffffff"/>
		</g>
		<g filter="url(#filter2)">
			<path d="M 180.2031 76 L 183.7188 59.2031 C 184.75 54.3594 186.5469 50.4375 189.1406 47.4688 C 191.7344 44.5 194.7188 43 198.0938 43 C 199.7188 43 200.9844 43.4688 201.9219 44.375 C 202.8438 45.2969 203.3125 46.5938 203.3125 48.25 C 203.3125 49.4688 203.0313 51.3594 202.5 53.9531 L 197.7031 76 L 200.9219 76 L 205.8281 53.5 C 206.1875 51.5 206.3906 50.2031 206.4531 49.6094 C 206.5 49.0156 206.5313 48.3906 206.5313 47.7656 C 206.5313 45.2656 205.8281 43.3594 204.4219 42.0156 C 203.0156 40.6719 201.0469 40 198.5313 40 C 196 40 193.6094 40.7656 191.375 42.2656 C 189.1406 43.7656 187.2031 45.9844 185.5469 48.8906 L 185.3594 48.8906 C 185.2969 46 184.6406 43.7969 183.4219 42.2813 C 182.2031 40.7656 180.4531 40 178.1719 40 C 175.7813 40 173.5 40.6563 171.3125 41.9531 C 169.125 43.2656 167.1875 45.2031 165.4688 47.7656 L 165.2813 47.7656 L 166.3438 41 L 163.7656 41 L 156.3281 76 L 159.4844 76 L 162.7031 60.6094 C 163.4531 57.0156 164.5156 53.9219 165.9219 51.2969 C 167.3125 48.6875 169.0156 46.6563 171.0469 45.1875 C 173.0625 43.7344 175.2188 43 177.5 43 C 180.7969 43 182.4531 44.9688 182.4531 48.9063 C 182.4531 49.7031 182.1875 51.4531 181.6563 54.1563 L 176.9063 76 L 180.2031 76 L 180.2031 76 Z" fill="#00b259"/>
			<path d="M 234.75 74.7031 L 234.75 71.6406 C 231.6563 73.2188 228.6875 74 225.8594 74 C 222.8594 74 220.5781 73.0781 218.9844 71.2188 C 217.3906 69.375 216.6094 66.6719 216.6094 63.1406 C 216.6094 61.9844 216.6719 60.9375 216.7969 60 L 217.8594 60 C 224.7656 60 229.9844 58.9531 233.5 56.8281 C 237.0156 54.7031 238.7813 51.625 238.7813 47.5938 C 238.7813 45.25 238.0469 43.4063 236.5781 42.0469 C 235.1094 40.6875 233.1563 40 230.7188 40 C 227.5 40 224.5469 41.0781 221.875 43.2344 C 219.1875 45.3906 217.0938 48.2813 215.5625 51.9219 C 214.0313 55.5625 213.2813 59.375 213.2813 63.3438 C 213.2813 67.6563 214.3125 71 216.4063 73.4063 C 218.5 75.8125 221.3906 77 225.1094 77 C 228.5156 77 231.7344 76.2344 234.75 74.7031 L 234.75 74.7031 ZM 234.0781 44.4375 C 235.0156 45.4063 235.4844 46.6094 235.4844 48.0781 C 235.4844 54.0313 229.9219 57 218.8281 57 L 217.25 57 C 218.3125 52.75 220.0625 49.3594 222.4844 46.8125 C 224.8906 44.2813 227.5156 43 230.3281 43 C 231.8906 43 233.1406 43.4844 234.0781 44.4375 L 234.0781 44.4375 Z" fill="#00b259"/>
		</g>
		<g filter="url(#filter3)">
			<path d="M 244.2862 10.3711 C 244.2862 8.0533 246.191 6.1744 248.5406 6.1744 C 250.8903 6.1744 252.7951 8.0533 252.7951 10.3711 C 252.7951 12.689 250.8903 14.5679 248.5406 14.5679 C 246.191 14.5679 244.2862 12.689 244.2862 10.3711 ZM 248.4277 0.0093 C 248.4277 0.0093 243.4328 -0.1888 240.0694 4.1689 C 236.5749 8.6965 238.5634 14.6422 238.5634 14.6422 L 248.5783 37 L 258.5179 14.5679 C 258.5179 14.5679 260.3 9.096 257.0119 4.2432 C 253.8648 -0.4016 248.4277 0.0093 248.4277 0.0093 Z" stroke="#ffffff00" stroke-width="1" fill="#00b259"/>
		</g>
	</g>
</svg>